<mxfile host="65bd71144e">
    <diagram name="ページ1" id="gZAJP0iCXnL_WzayrxCC">
        <mxGraphModel dx="1726" dy="773" grid="1" gridSize="10" guides="1" tooltips="1" connect="1" arrows="1" fold="1" page="1" pageScale="1" pageWidth="827" pageHeight="1169" math="0" shadow="0">
            <root>
                <mxCell id="0"/>
                <mxCell id="1" parent="0"/>
                <mxCell id="GUku_39f11tzkCRp_1Go-2" value="AWS Cloud" style="points=[[0,0],[0.25,0],[0.5,0],[0.75,0],[1,0],[1,0.25],[1,0.5],[1,0.75],[1,1],[0.75,1],[0.5,1],[0.25,1],[0,1],[0,0.75],[0,0.5],[0,0.25]];outlineConnect=0;gradientColor=none;html=1;whiteSpace=wrap;fontSize=12;fontStyle=0;container=1;pointerEvents=0;collapsible=0;recursiveResize=0;shape=mxgraph.aws4.group;grIcon=mxgraph.aws4.group_aws_cloud;strokeColor=#232F3E;fillColor=none;verticalAlign=top;align=left;spacingLeft=30;fontColor=#232F3E;dashed=0;" parent="1" vertex="1">
                    <mxGeometry x="30" y="150" width="787" height="710" as="geometry"/>
                </mxCell>
                <mxCell id="GUku_39f11tzkCRp_1Go-7" value="VPC" style="points=[[0,0],[0.25,0],[0.5,0],[0.75,0],[1,0],[1,0.25],[1,0.5],[1,0.75],[1,1],[0.75,1],[0.5,1],[0.25,1],[0,1],[0,0.75],[0,0.5],[0,0.25]];outlineConnect=0;gradientColor=none;html=1;whiteSpace=wrap;fontSize=12;fontStyle=0;container=1;pointerEvents=0;collapsible=0;recursiveResize=0;shape=mxgraph.aws4.group;grIcon=mxgraph.aws4.group_vpc2;strokeColor=#8C4FFF;fillColor=none;verticalAlign=top;align=left;spacingLeft=30;fontColor=#AAB7B8;dashed=0;" parent="GUku_39f11tzkCRp_1Go-2" vertex="1">
                    <mxGeometry x="-20" y="50" width="635" height="560" as="geometry"/>
                </mxCell>
                <mxCell id="GUku_39f11tzkCRp_1Go-3" value="Public subnet" style="points=[[0,0],[0.25,0],[0.5,0],[0.75,0],[1,0],[1,0.25],[1,0.5],[1,0.75],[1,1],[0.75,1],[0.5,1],[0.25,1],[0,1],[0,0.75],[0,0.5],[0,0.25]];outlineConnect=0;gradientColor=none;html=1;whiteSpace=wrap;fontSize=12;fontStyle=0;container=1;pointerEvents=0;collapsible=0;recursiveResize=0;shape=mxgraph.aws4.group;grIcon=mxgraph.aws4.group_security_group;grStroke=0;strokeColor=#7AA116;fillColor=#F2F6E8;verticalAlign=top;align=left;spacingLeft=30;fontColor=#248814;dashed=0;" parent="GUku_39f11tzkCRp_1Go-7" vertex="1">
                    <mxGeometry x="60" y="116" width="210" height="150" as="geometry"/>
                </mxCell>
                <mxCell id="GUku_39f11tzkCRp_1Go-10" value="" style="sketch=0;points=[[0,0,0],[0.25,0,0],[0.5,0,0],[0.75,0,0],[1,0,0],[0,1,0],[0.25,1,0],[0.5,1,0],[0.75,1,0],[1,1,0],[0,0.25,0],[0,0.5,0],[0,0.75,0],[1,0.25,0],[1,0.5,0],[1,0.75,0]];outlineConnect=0;fontColor=#232F3E;fillColor=#ED7100;strokeColor=#ffffff;dashed=0;verticalLabelPosition=bottom;verticalAlign=top;align=center;html=1;fontSize=12;fontStyle=0;aspect=fixed;shape=mxgraph.aws4.resourceIcon;resIcon=mxgraph.aws4.ec2;" parent="GUku_39f11tzkCRp_1Go-3" vertex="1">
                    <mxGeometry x="66" y="36" width="78" height="78" as="geometry"/>
                </mxCell>
                <mxCell id="GUku_39f11tzkCRp_1Go-4" value="Public subnet" style="points=[[0,0],[0.25,0],[0.5,0],[0.75,0],[1,0],[1,0.25],[1,0.5],[1,0.75],[1,1],[0.75,1],[0.5,1],[0.25,1],[0,1],[0,0.75],[0,0.5],[0,0.25]];outlineConnect=0;gradientColor=none;html=1;whiteSpace=wrap;fontSize=12;fontStyle=0;container=1;pointerEvents=0;collapsible=0;recursiveResize=0;shape=mxgraph.aws4.group;grIcon=mxgraph.aws4.group_security_group;grStroke=0;strokeColor=#7AA116;fillColor=#F2F6E8;verticalAlign=top;align=left;spacingLeft=30;fontColor=#248814;dashed=0;" parent="GUku_39f11tzkCRp_1Go-7" vertex="1">
                    <mxGeometry x="381" y="116" width="196" height="130" as="geometry"/>
                </mxCell>
                <mxCell id="GUku_39f11tzkCRp_1Go-11" value="" style="sketch=0;points=[[0,0,0],[0.25,0,0],[0.5,0,0],[0.75,0,0],[1,0,0],[0,1,0],[0.25,1,0],[0.5,1,0],[0.75,1,0],[1,1,0],[0,0.25,0],[0,0.5,0],[0,0.75,0],[1,0.25,0],[1,0.5,0],[1,0.75,0]];outlineConnect=0;fontColor=#232F3E;fillColor=#ED7100;strokeColor=#ffffff;dashed=0;verticalLabelPosition=bottom;verticalAlign=top;align=center;html=1;fontSize=12;fontStyle=0;aspect=fixed;shape=mxgraph.aws4.resourceIcon;resIcon=mxgraph.aws4.ec2;" parent="GUku_39f11tzkCRp_1Go-4" vertex="1">
                    <mxGeometry x="59" y="36" width="78" height="78" as="geometry"/>
                </mxCell>
                <mxCell id="GUku_39f11tzkCRp_1Go-19" style="edgeStyle=orthogonalEdgeStyle;rounded=0;orthogonalLoop=1;jettySize=auto;html=1;" parent="GUku_39f11tzkCRp_1Go-7" source="GUku_39f11tzkCRp_1Go-8" target="GUku_39f11tzkCRp_1Go-9" edge="1">
                    <mxGeometry relative="1" as="geometry"/>
                </mxCell>
                <mxCell id="GUku_39f11tzkCRp_1Go-8" value="" style="sketch=0;outlineConnect=0;fontColor=#232F3E;gradientColor=none;fillColor=#8C4FFF;strokeColor=none;dashed=0;verticalLabelPosition=bottom;verticalAlign=top;align=center;html=1;fontSize=12;fontStyle=0;aspect=fixed;pointerEvents=1;shape=mxgraph.aws4.internet_gateway;" parent="GUku_39f11tzkCRp_1Go-7" vertex="1">
                    <mxGeometry x="275" y="-40" width="78" height="78" as="geometry"/>
                </mxCell>
                <mxCell id="GUku_39f11tzkCRp_1Go-9" value="" style="sketch=0;outlineConnect=0;fontColor=#232F3E;gradientColor=none;fillColor=#8C4FFF;strokeColor=none;dashed=0;verticalLabelPosition=bottom;verticalAlign=top;align=center;html=1;fontSize=12;fontStyle=0;aspect=fixed;pointerEvents=1;shape=mxgraph.aws4.application_load_balancer;" parent="GUku_39f11tzkCRp_1Go-7" vertex="1">
                    <mxGeometry x="275" y="96" width="78" height="78" as="geometry"/>
                </mxCell>
                <mxCell id="GUku_39f11tzkCRp_1Go-5" value="Private subnet" style="points=[[0,0],[0.25,0],[0.5,0],[0.75,0],[1,0],[1,0.25],[1,0.5],[1,0.75],[1,1],[0.75,1],[0.5,1],[0.25,1],[0,1],[0,0.75],[0,0.5],[0,0.25]];outlineConnect=0;gradientColor=none;html=1;whiteSpace=wrap;fontSize=12;fontStyle=0;container=1;pointerEvents=0;collapsible=0;recursiveResize=0;shape=mxgraph.aws4.group;grIcon=mxgraph.aws4.group_security_group;grStroke=0;strokeColor=#00A4A6;fillColor=#E6F6F7;verticalAlign=top;align=left;spacingLeft=30;fontColor=#147EBA;dashed=0;" parent="GUku_39f11tzkCRp_1Go-7" vertex="1">
                    <mxGeometry x="60" y="360" width="220" height="150" as="geometry"/>
                </mxCell>
                <mxCell id="GUku_39f11tzkCRp_1Go-12" value="" style="sketch=0;points=[[0,0,0],[0.25,0,0],[0.5,0,0],[0.75,0,0],[1,0,0],[0,1,0],[0.25,1,0],[0.5,1,0],[0.75,1,0],[1,1,0],[0,0.25,0],[0,0.5,0],[0,0.75,0],[1,0.25,0],[1,0.5,0],[1,0.75,0]];outlineConnect=0;fontColor=#232F3E;fillColor=#C925D1;strokeColor=#ffffff;dashed=0;verticalLabelPosition=bottom;verticalAlign=top;align=center;html=1;fontSize=12;fontStyle=0;aspect=fixed;shape=mxgraph.aws4.resourceIcon;resIcon=mxgraph.aws4.rds;" parent="GUku_39f11tzkCRp_1Go-5" vertex="1">
                    <mxGeometry x="66" y="30" width="78" height="78" as="geometry"/>
                </mxCell>
                <mxCell id="GUku_39f11tzkCRp_1Go-6" value="Private subnet" style="points=[[0,0],[0.25,0],[0.5,0],[0.75,0],[1,0],[1,0.25],[1,0.5],[1,0.75],[1,1],[0.75,1],[0.5,1],[0.25,1],[0,1],[0,0.75],[0,0.5],[0,0.25]];outlineConnect=0;gradientColor=none;html=1;whiteSpace=wrap;fontSize=12;fontStyle=0;container=1;pointerEvents=0;collapsible=0;recursiveResize=0;shape=mxgraph.aws4.group;grIcon=mxgraph.aws4.group_security_group;grStroke=0;strokeColor=#00A4A6;fillColor=#E6F6F7;verticalAlign=top;align=left;spacingLeft=30;fontColor=#147EBA;dashed=0;" parent="GUku_39f11tzkCRp_1Go-7" vertex="1">
                    <mxGeometry x="384" y="370" width="196" height="130" as="geometry"/>
                </mxCell>
                <mxCell id="GUku_39f11tzkCRp_1Go-13" value="" style="sketch=0;points=[[0,0,0],[0.25,0,0],[0.5,0,0],[0.75,0,0],[1,0,0],[0,1,0],[0.25,1,0],[0.5,1,0],[0.75,1,0],[1,1,0],[0,0.25,0],[0,0.5,0],[0,0.75,0],[1,0.25,0],[1,0.5,0],[1,0.75,0]];outlineConnect=0;fontColor=#232F3E;fillColor=#C925D1;strokeColor=#ffffff;dashed=0;verticalLabelPosition=bottom;verticalAlign=top;align=center;html=1;fontSize=12;fontStyle=0;aspect=fixed;shape=mxgraph.aws4.resourceIcon;resIcon=mxgraph.aws4.rds;" parent="GUku_39f11tzkCRp_1Go-6" vertex="1">
                    <mxGeometry x="56" y="26" width="78" height="78" as="geometry"/>
                </mxCell>
                <mxCell id="GUku_39f11tzkCRp_1Go-20" style="edgeStyle=orthogonalEdgeStyle;rounded=0;orthogonalLoop=1;jettySize=auto;html=1;entryX=0.5;entryY=0;entryDx=0;entryDy=0;entryPerimeter=0;" parent="GUku_39f11tzkCRp_1Go-7" source="GUku_39f11tzkCRp_1Go-9" target="GUku_39f11tzkCRp_1Go-10" edge="1">
                    <mxGeometry relative="1" as="geometry">
                        <Array as="points">
                            <mxPoint x="165" y="132"/>
                        </Array>
                    </mxGeometry>
                </mxCell>
                <mxCell id="GUku_39f11tzkCRp_1Go-21" style="edgeStyle=orthogonalEdgeStyle;rounded=0;orthogonalLoop=1;jettySize=auto;html=1;entryX=0.5;entryY=0;entryDx=0;entryDy=0;entryPerimeter=0;" parent="GUku_39f11tzkCRp_1Go-7" source="GUku_39f11tzkCRp_1Go-9" target="GUku_39f11tzkCRp_1Go-11" edge="1">
                    <mxGeometry relative="1" as="geometry">
                        <Array as="points">
                            <mxPoint x="479" y="135"/>
                        </Array>
                    </mxGeometry>
                </mxCell>
                <mxCell id="GUku_39f11tzkCRp_1Go-22" style="edgeStyle=orthogonalEdgeStyle;rounded=0;orthogonalLoop=1;jettySize=auto;html=1;entryX=0.5;entryY=0;entryDx=0;entryDy=0;entryPerimeter=0;" parent="GUku_39f11tzkCRp_1Go-7" source="GUku_39f11tzkCRp_1Go-10" target="GUku_39f11tzkCRp_1Go-12" edge="1">
                    <mxGeometry relative="1" as="geometry"/>
                </mxCell>
                <mxCell id="GUku_39f11tzkCRp_1Go-23" style="edgeStyle=orthogonalEdgeStyle;rounded=0;orthogonalLoop=1;jettySize=auto;html=1;entryX=0.75;entryY=0;entryDx=0;entryDy=0;entryPerimeter=0;" parent="GUku_39f11tzkCRp_1Go-7" source="GUku_39f11tzkCRp_1Go-11" target="GUku_39f11tzkCRp_1Go-12" edge="1">
                    <mxGeometry relative="1" as="geometry">
                        <Array as="points">
                            <mxPoint x="479" y="310"/>
                            <mxPoint x="185" y="310"/>
                        </Array>
                    </mxGeometry>
                </mxCell>
                <mxCell id="GUku_39f11tzkCRp_1Go-14" value="" style="sketch=0;outlineConnect=0;fontColor=#232F3E;gradientColor=none;fillColor=#232F3D;strokeColor=none;dashed=0;verticalLabelPosition=bottom;verticalAlign=top;align=center;html=1;fontSize=12;fontStyle=0;aspect=fixed;pointerEvents=1;shape=mxgraph.aws4.internet;" parent="GUku_39f11tzkCRp_1Go-2" vertex="1">
                    <mxGeometry x="705" y="80" width="78" height="48" as="geometry"/>
                </mxCell>
                <mxCell id="GUku_39f11tzkCRp_1Go-17" style="edgeStyle=orthogonalEdgeStyle;rounded=0;orthogonalLoop=1;jettySize=auto;html=1;" parent="GUku_39f11tzkCRp_1Go-2" source="GUku_39f11tzkCRp_1Go-15" target="GUku_39f11tzkCRp_1Go-14" edge="1">
                    <mxGeometry relative="1" as="geometry"/>
                </mxCell>
                <mxCell id="GUku_39f11tzkCRp_1Go-15" value="" style="sketch=0;outlineConnect=0;fontColor=#232F3E;gradientColor=none;fillColor=#232F3D;strokeColor=none;dashed=0;verticalLabelPosition=bottom;verticalAlign=top;align=center;html=1;fontSize=12;fontStyle=0;aspect=fixed;pointerEvents=1;shape=mxgraph.aws4.client;" parent="GUku_39f11tzkCRp_1Go-2" vertex="1">
                    <mxGeometry x="705" y="240" width="78" height="76" as="geometry"/>
                </mxCell>
                <mxCell id="GUku_39f11tzkCRp_1Go-18" style="edgeStyle=orthogonalEdgeStyle;rounded=0;orthogonalLoop=1;jettySize=auto;html=1;entryX=0.526;entryY=-0.013;entryDx=0;entryDy=0;entryPerimeter=0;" parent="GUku_39f11tzkCRp_1Go-2" source="GUku_39f11tzkCRp_1Go-14" target="GUku_39f11tzkCRp_1Go-8" edge="1">
                    <mxGeometry relative="1" as="geometry">
                        <Array as="points">
                            <mxPoint x="744" y="-110"/>
                            <mxPoint x="271" y="-110"/>
                        </Array>
                    </mxGeometry>
                </mxCell>
            </root>
        </mxGraphModel>
    </diagram>
</mxfile>